<?xml version="1.0" encoding="UTF-8"?>
<svg id="Ebene_1" xmlns="http://www.w3.org/2000/svg" version="1.1" viewBox="0 0 500 500">
  <!-- Generator: Adobe Illustrator 30.2.1, SVG Export Plug-In . SVG Version: 2.1.1 Build 1)  -->
  <defs>
    <style>
      .st0 {
        fill: none;
        stroke: #2e8b57;
        stroke-linecap: round;
        stroke-linejoin: round;
        stroke-width: 12.1px;
      }

      .st1 {
        fill: #2e8b57;
      }
    </style>
  </defs>
  <g>
    <g>
      <polyline class="st0" points="195.7 140.7 249.9 116.4 305.5 138.5"/>
      <path class="st0" d="M249.9,116.4v-16.8c0-2.9,2.3-5.1,5.1-5.1h0c12.3,0,22.2-10,22.2-22.2v-2.2c0-12.3-10-22.2-22.2-22.2h0c-12.3,0-22.2,10-22.2,22.2v.8"/>
    </g>
    <path class="st0" d="M405,259l-59.8-24.2v188.4h-190.6v-189.6l-59.8,23.7c-29.5-24.6-27.2-68.4-27.2-68.4,0,0,34.8-19.6,65.3-34.8,30.2-15.2,60.7-28.8,61.2-29-1.3,3.1-2,6.3-2,9.6,0,20.2,25.5,36.6,56.9,36.6s56.9-16.3,56.9-36.6-.6-6-1.7-8.8c.5.2,32.7,14.7,62.9,29.9,30.4,15.3,65.3,34.8,65.3,34.8,0,0,2.3,43.8-27.2,68.4h-.2Z"/>
  </g>
  <g>
    <g>
      <path class="st0" d="M213.4,317c10,8.6,23,13.9,37.2,13.9,28.7,0,52.4-21.3,56.2-48.9"/>
      <polygon class="st1" points="196.1 337.4 194.4 282.1 243.1 308.2 196.1 337.4"/>
    </g>
    <g>
      <path class="st0" d="M194.4,266.3c3.8-27.6,27.6-48.9,56.2-48.9s27.2,5.2,37.2,13.9"/>
      <polygon class="st1" points="258 240.2 306.8 266.3 305.1 211 258 240.2"/>
    </g>
  </g>
</svg>