<?xml version="1.0" encoding="UTF-8"?>
<svg id="Ebene_1" xmlns="http://www.w3.org/2000/svg" version="1.1" viewBox="0 0 1500 497">
  <!-- Generator: Adobe Illustrator 30.2.0, SVG Export Plug-In . SVG Version: 2.1.1 Build 105)  -->
  <defs>
    <style>
      .st0 {
        isolation: isolate;
      }

      .st1 {
        fill: #2e8b57;
      }

      .st2 {
        fill: none;
        stroke: #2e8b57;
        stroke-linecap: round;
        stroke-linejoin: round;
        stroke-width: 12.1px;
      }
    </style>
  </defs>
  <g class="st0">
    <g class="st0">
      <path class="st1" d="M529.4,184.2v107.8h-17.4l-50.8-73.5h-.9v73.5h-19.5v-107.8h17.5l50.7,73.5h1v-73.5h19.4,0Z"/>
      <path class="st1" d="M585.5,293.6c-8.1,0-15.1-1.7-21-5.1-5.9-3.4-10.4-8.2-13.6-14.4s-4.7-13.6-4.7-22,1.6-15.6,4.8-21.9,7.6-11.2,13.3-14.7c5.7-3.5,12.4-5.3,20.2-5.3s9.7.8,14.1,2.4c4.4,1.6,8.3,4.1,11.8,7.4,3.4,3.3,6.1,7.6,8.1,12.7,2,5.1,3,11.3,3,18.4v5.8h-66.3v-12.8h48c0-3.7-.8-6.9-2.4-9.8-1.6-2.9-3.7-5.1-6.4-6.8s-5.9-2.5-9.6-2.5-7.3,1-10.3,2.8c-3,1.9-5.2,4.3-6.9,7.4-1.6,3-2.5,6.4-2.5,10v11.2c0,4.7.9,8.7,2.6,12.1,1.7,3.4,4.1,5.9,7.2,7.7,3.1,1.8,6.7,2.7,10.9,2.7s5.3-.4,7.5-1.2c2.3-.8,4.2-2,5.8-3.5,1.7-1.6,2.9-3.5,3.7-5.7l17.8,2c-1.1,4.7-3.3,8.8-6.4,12.3s-7.1,6.2-12,8.1c-4.9,1.9-10.5,2.9-16.7,2.9h0Z"/>
      <path class="st1" d="M678,211.2v14.7h-46.5v-14.7h46.5ZM643,191.8h19.1v75.9c0,2.6.4,4.5,1.2,5.9s1.8,2.3,3.1,2.8,2.7.8,4.3.8,2.3-.1,3.3-.3c1-.2,1.8-.4,2.3-.5l3.2,14.9c-1,.4-2.5.8-4.3,1.2s-4.2.7-6.9.8c-4.8.2-9-.6-12.9-2.2-3.8-1.6-6.8-4.1-9.1-7.4-2.2-3.4-3.3-7.6-3.3-12.6v-79.1h0Z"/>
      <path class="st1" d="M692.9,292v-12.1l41.7-52.3v-.7h-40.3v-15.8h63.6v13l-39.7,51.4v.7h41.1v15.8h-66.4Z"/>
      <path class="st1" d="M793.9,292l-22.8-80.8h19.4l14.2,56.9h.8l14.5-56.9h19.2l14.5,56.6h.8l14-56.6h19.5l-22.9,80.8h-19.9l-15.2-54.7h-1.1l-15.2,54.7h-19.9Z"/>
      <path class="st1" d="M937.2,293.6c-8.1,0-15.1-1.7-21-5.1-5.9-3.4-10.4-8.2-13.6-14.4-3.2-6.2-4.7-13.6-4.7-22s1.6-15.6,4.8-21.9c3.2-6.3,7.6-11.2,13.3-14.7,5.7-3.5,12.4-5.3,20.2-5.3s9.7.8,14.1,2.4c4.4,1.6,8.3,4.1,11.8,7.4,3.4,3.3,6.1,7.6,8.1,12.7,2,5.1,3,11.3,3,18.4v5.8h-66.3v-12.8h48c0-3.7-.8-6.9-2.4-9.8-1.6-2.9-3.7-5.1-6.4-6.8s-5.9-2.5-9.6-2.5-7.3,1-10.3,2.8c-3,1.9-5.2,4.3-6.9,7.4-1.6,3-2.5,6.4-2.5,10v11.2c0,4.7.9,8.7,2.6,12.1,1.7,3.4,4.1,5.9,7.2,7.7,3.1,1.8,6.7,2.7,10.9,2.7s5.3-.4,7.5-1.2c2.3-.8,4.2-2,5.8-3.5,1.7-1.6,2.9-3.5,3.7-5.7l17.8,2c-1.1,4.7-3.3,8.8-6.4,12.3s-7.1,6.2-12,8.1c-4.9,1.9-10.5,2.9-16.7,2.9h0Z"/>
      <path class="st1" d="M989.2,292v-80.8h18.5v13.5h.9c1.5-4.7,4-8.3,7.6-10.8,3.6-2.6,7.7-3.8,12.4-3.8s2.3,0,3.6.2c1.3.1,2.4.2,3.3.4v17.5c-.8-.3-2.1-.6-3.8-.8-1.8-.3-3.4-.4-5-.4-3.5,0-6.6.8-9.4,2.3s-4.9,3.6-6.5,6.2c-1.6,2.6-2.4,5.7-2.4,9.1v47.5h-19.1Z"/>
      <path class="st1" d="M1048,292v-107.8h19.1v107.8h-19.1ZM1065.4,266.7v-23c0,0,3,0,3,0l29.1-32.5h22.3l-35.7,39.8h-4l-14.6,15.7ZM1098.8,292l-26.3-36.8,12.8-13.4,36.2,50.2h-22.8,0Z"/>
    </g>
    <g class="st0">
      <path class="st1" d="M437.2,426.5v-81.5h17.2v35.9h1.1l29.3-35.9h20.7l-30.2,36.5,30.6,45h-20.6l-22.3-33.5-8.5,10.4v23.2h-17.2,0Z"/>
      <path class="st1" d="M531.1,345v81.5h-16.9v-81.5h16.9Z"/>
      <path class="st1" d="M572.5,427.7c-6.3,0-11.7-1.3-16.2-3.8-4.5-2.6-8-6.2-10.5-10.9s-3.7-10.3-3.7-16.7,1.2-11.8,3.7-16.5,5.9-8.4,10.3-11.1c4.4-2.7,9.7-4,15.6-4s7.8.7,11.3,1.9c3.5,1.3,6.5,3.2,9.2,5.8s4.6,5.8,6.1,9.7c1.5,3.9,2.2,8.4,2.2,13.6v4.7h-51.6v-10.5h35.6c0-2.5-.6-4.6-1.6-6.5s-2.5-3.4-4.4-4.4-4-1.6-6.5-1.6-4.8.6-6.8,1.8c-2,1.2-3.5,2.8-4.6,4.7s-1.7,4.2-1.7,6.6v10c0,3,.6,5.6,1.7,7.8,1.1,2.2,2.7,3.9,4.8,5.1,2.1,1.2,4.5,1.8,7.3,1.8s3.6-.3,5.2-.8c1.6-.6,2.9-1.3,4-2.4,1.1-1.1,2-2.4,2.6-3.9l15.7,1.1c-.8,3.8-2.4,7-4.9,9.9-2.5,2.8-5.6,5-9.5,6.5-3.9,1.6-8.3,2.3-13.3,2.3h0Z"/>
      <path class="st1" d="M620.1,357.5c-2.5,0-4.7-.9-6.5-2.5s-2.7-3.7-2.7-6,.9-4.4,2.7-6.1c1.8-1.7,4-2.5,6.4-2.5s4.7.9,6.5,2.5,2.7,3.7,2.7,6-.9,4.4-2.7,6.1c-1.8,1.7-3.9,2.5-6.5,2.5ZM611.6,426.5v-61.1h16.9v61.1h-16.9Z"/>
      <path class="st1" d="M664.6,427.5c-4.6,0-8.8-1.2-12.6-3.6-3.8-2.4-6.7-5.9-8.9-10.6-2.2-4.7-3.3-10.4-3.3-17.2s1.1-12.8,3.4-17.5,5.3-8.1,9-10.5c3.8-2.3,7.9-3.5,12.4-3.5s6.3.6,8.6,1.7c2.3,1.2,4.2,2.6,5.6,4.3,1.4,1.7,2.5,3.4,3.2,5h.5v-30.6h16.9v81.5h-16.7v-9.8h-.7c-.8,1.7-1.9,3.4-3.4,5-1.5,1.7-3.3,3-5.6,4.1s-5.1,1.6-8.4,1.6h0ZM670,414c2.7,0,5-.8,6.9-2.3s3.4-3.6,4.4-6.3c1-2.7,1.5-5.9,1.5-9.5s-.5-6.8-1.5-9.5-2.5-4.7-4.4-6.2c-1.9-1.5-4.2-2.2-6.9-2.2s-5.1.8-7,2.3-3.4,3.6-4.3,6.3c-1,2.7-1.5,5.8-1.5,9.3s.5,6.7,1.5,9.4,2.5,4.8,4.3,6.4c1.9,1.5,4.2,2.3,7,2.3h0Z"/>
      <path class="st1" d="M752.5,400.5v-35.1h16.9v61.1h-16.3v-11.1h-.7c-1.4,3.6-3.7,6.4-6.9,8.6-3.2,2.2-7.1,3.3-11.7,3.3s-7.7-.9-10.8-2.8c-3.1-1.9-5.5-4.5-7.2-7.9-1.8-3.4-2.6-7.5-2.7-12.3v-38.9h16.9v35.9c0,3.6,1,6.4,2.9,8.5s4.5,3.2,7.7,3.2,4-.5,5.7-1.4c1.8-1,3.2-2.4,4.3-4.2,1.1-1.9,1.7-4.2,1.6-6.9h0Z"/>
      <path class="st1" d="M799.9,391.2v35.3h-16.9v-61.1h16.1v10.8h.7c1.4-3.6,3.6-6.4,6.8-8.4,3.2-2.1,7-3.1,11.6-3.1s7.9.9,11.1,2.8c3.2,1.9,5.6,4.5,7.3,7.9,1.8,3.4,2.6,7.5,2.6,12.3v38.9h-16.9v-35.9c0-3.7-.9-6.7-2.9-8.7-2-2.1-4.6-3.2-8-3.2s-4.3.5-6,1.5c-1.8,1-3.1,2.4-4.1,4.3-1,1.9-1.5,4.1-1.5,6.7h.1Z"/>
      <path class="st1" d="M880.1,450.7c-5.5,0-10.2-.8-14.1-2.3-3.9-1.5-7-3.5-9.4-6.1s-3.8-5.5-4.5-8.7l15.7-2.1c.5,1.2,1.3,2.4,2.3,3.4,1.1,1.1,2.4,1.9,4.1,2.6,1.7.7,3.8,1,6.3,1,3.7,0,6.7-.9,9.2-2.7,2.4-1.8,3.6-4.8,3.6-8.9v-11.2h-.7c-.8,1.7-1.9,3.3-3.3,4.8-1.5,1.5-3.4,2.8-5.7,3.7s-5.1,1.4-8.3,1.4c-4.6,0-8.7-1.1-12.5-3.2-3.8-2.1-6.7-5.4-8.9-9.8-2.2-4.4-3.3-10-3.3-16.8s1.1-12.7,3.4-17.3,5.3-8.1,9-10.4c3.8-2.3,7.9-3.5,12.4-3.5s6.3.6,8.6,1.7,4.2,2.6,5.6,4.3c1.4,1.7,2.5,3.4,3.3,5h.7v-10.3h16.8v61.7c0,5.2-1.3,9.6-3.8,13.1-2.6,3.5-6.1,6.1-10.6,7.9s-9.7,2.7-15.5,2.7h-.1ZM880.5,412.9c2.7,0,5-.7,6.9-2.1,1.9-1.4,3.4-3.3,4.4-5.9,1-2.6,1.5-5.6,1.5-9.2s-.5-6.7-1.5-9.4c-1-2.6-2.5-4.7-4.4-6.1-1.9-1.5-4.2-2.2-6.9-2.2s-5.1.8-7,2.3-3.4,3.6-4.3,6.2c-1,2.7-1.5,5.7-1.5,9.2s.5,6.6,1.5,9.2c1,2.6,2.5,4.5,4.3,5.9,1.9,1.4,4.2,2.1,7,2.1h0Z"/>
      <path class="st1" d="M974.4,382.8l-15.5,1c-.3-1.3-.9-2.5-1.7-3.6-.9-1.1-2-1.9-3.4-2.6s-3.1-1-5.1-1-4.8.6-6.6,1.7-2.7,2.6-2.7,4.4.6,2.7,1.8,3.7,3.2,1.8,6,2.4l11.1,2.2c5.9,1.2,10.4,3.2,13.3,5.9s4.4,6.3,4.4,10.7-1.2,7.5-3.5,10.6-5.6,5.4-9.7,7-8.7,2.5-14.1,2.5c-8.1,0-14.5-1.7-19.3-5.1-4.8-3.4-7.6-8-8.4-13.8l16.7-.9c.5,2.5,1.7,4.3,3.7,5.6,2,1.3,4.4,1.9,7.4,1.9s5.4-.6,7.2-1.7c1.8-1.2,2.7-2.7,2.8-4.5,0-1.6-.7-2.8-2-3.8s-3.2-1.8-5.9-2.3l-10.6-2.1c-6-1.2-10.4-3.3-13.3-6.2-2.9-2.9-4.4-6.7-4.4-11.3s1.1-7.3,3.2-10.2c2.1-2.8,5.1-5,9-6.6,3.9-1.6,8.4-2.3,13.7-2.3,7.7,0,13.8,1.6,18.3,4.9,4.4,3.3,7,7.7,7.8,13.3h0Z"/>
      <path class="st1" d="M1003.4,391.2v35.3h-16.9v-81.5h16.5v31.2h.7c1.4-3.6,3.6-6.4,6.7-8.5,3.1-2.1,6.9-3.1,11.6-3.1s7.9.9,11.1,2.8,5.6,4.5,7.4,7.9,2.6,7.5,2.6,12.3v38.9h-16.9v-35.9c0-3.8-.9-6.7-2.9-8.8-1.9-2.1-4.6-3.2-8-3.2s-4.3.5-6.1,1.5c-1.8,1-3.2,2.4-4.1,4.3-1,1.9-1.5,4.1-1.5,6.7h0Z"/>
      <path class="st1" d="M1064.9,357.5c-2.5,0-4.7-.9-6.5-2.5-1.8-1.7-2.7-3.7-2.7-6s.9-4.4,2.7-6.1c1.8-1.7,4-2.5,6.4-2.5s4.7.9,6.5,2.5c1.8,1.7,2.7,3.7,2.7,6s-.9,4.4-2.7,6.1c-1.8,1.7-3.9,2.5-6.5,2.5ZM1056.4,426.5v-61.1h16.9v61.1h-16.9Z"/>
      <path class="st1" d="M1103.8,345v81.5h-16.9v-81.5h16.9Z"/>
      <path class="st1" d="M1150.2,365.4v12.7h-37.7v-12.7h37.7ZM1121.1,426.5v-65.5c0-4.4.9-8.1,2.6-11,1.8-2.9,4.1-5.1,7.1-6.6,3-1.5,6.4-2.2,10.3-2.2s5,.2,7.1.6,3.8.8,4.8,1.1l-3,12.7c-.7-.2-1.5-.4-2.5-.6-1-.2-2-.3-3-.3-2.5,0-4.2.6-5.2,1.7-1,1.2-1.5,2.8-1.5,4.8v65.2h-16.9Z"/>
      <path class="st1" d="M1188.4,427.7c-6.3,0-11.7-1.3-16.2-3.8-4.5-2.6-8-6.2-10.5-10.9-2.5-4.7-3.7-10.3-3.7-16.7s1.2-11.8,3.7-16.5c2.5-4.7,5.9-8.4,10.3-11.1s9.7-4,15.6-4,7.8.7,11.3,1.9c3.5,1.3,6.5,3.2,9.2,5.8s4.6,5.8,6.1,9.7c1.5,3.9,2.2,8.4,2.2,13.6v4.7h-51.6v-10.5h35.6c0-2.5-.6-4.6-1.6-6.5-1.1-1.9-2.5-3.4-4.4-4.4s-4-1.6-6.5-1.6-4.8.6-6.8,1.8c-2,1.2-3.5,2.8-4.6,4.7s-1.7,4.2-1.7,6.6v10c0,3,.6,5.6,1.7,7.8,1.1,2.2,2.7,3.9,4.8,5.1,2.1,1.2,4.5,1.8,7.3,1.8s3.6-.3,5.2-.8,2.9-1.3,4-2.4c1.1-1.1,2-2.4,2.6-3.9l15.7,1.1c-.8,3.8-2.4,7-4.9,9.9s-5.6,5-9.5,6.5c-3.9,1.6-8.3,2.3-13.3,2.3h0Z"/>
      <path class="st1" d="M1281.4,427.7c-6.3,0-11.7-1.3-16.2-3.8-4.5-2.6-8-6.2-10.5-10.9-2.5-4.7-3.7-10.3-3.7-16.7s1.2-11.8,3.7-16.5c2.5-4.7,5.9-8.4,10.3-11.1s9.7-4,15.6-4,7.8.7,11.3,1.9c3.5,1.3,6.5,3.2,9.2,5.8,2.6,2.6,4.6,5.8,6.1,9.7,1.5,3.9,2.2,8.4,2.2,13.6v4.7h-51.6v-10.5h35.6c0-2.5-.6-4.6-1.6-6.5-1.1-1.9-2.5-3.4-4.4-4.4s-4-1.6-6.5-1.6-4.8.6-6.8,1.8c-2,1.2-3.5,2.8-4.6,4.7s-1.7,4.2-1.7,6.6v10c0,3,.6,5.6,1.7,7.8,1.1,2.2,2.7,3.9,4.8,5.1,2.1,1.2,4.5,1.8,7.3,1.8s3.6-.3,5.2-.8,2.9-1.3,4-2.4c1.1-1.1,2-2.4,2.6-3.9l15.7,1.1c-.8,3.8-2.4,7-4.9,9.9s-5.6,5-9.5,6.5c-3.9,1.6-8.3,2.3-13.3,2.3h0Z"/>
      <path class="st1" d="M1330.4,427.5c-2.6,0-4.9-1-6.7-2.8-1.9-1.9-2.8-4.1-2.8-6.7s1-4.8,2.8-6.7c1.9-1.9,4.1-2.8,6.7-2.8s4.8.9,6.7,2.8,2.9,4.1,2.9,6.7-.5,3.4-1.4,4.8c-.9,1.5-2.1,2.6-3.5,3.5-1.4.9-3,1.3-4.7,1.3h0Z"/>
      <path class="st1" d="M1368.8,345l19.7,61.9h.8l19.7-61.9h19.1l-28.1,81.5h-22.2l-28.1-81.5h19.2,0Z"/>
      <path class="st1" d="M1447.5,427.5c-2.6,0-4.9-1-6.7-2.8-1.9-1.9-2.8-4.1-2.8-6.7s1-4.8,2.8-6.7c1.9-1.9,4.1-2.8,6.7-2.8s4.8.9,6.7,2.8,2.9,4.1,2.9,6.7-.5,3.4-1.4,4.8c-.9,1.5-2.1,2.6-3.5,3.5-1.4.9-3,1.3-4.7,1.3h0Z"/>
    </g>
  </g>
  <g>
    <g>
      <g>
        <polyline class="st2" points="171.2 139.2 225.4 114.9 281 137"/>
        <path class="st2" d="M225.4,114.9v-16.8c0-2.9,2.3-5.1,5.1-5.1h0c12.3,0,22.2-10,22.2-22.2v-2.2c0-12.3-10-22.2-22.2-22.2h0c-12.3,0-22.2,10-22.2,22.2v.8"/>
      </g>
      <path class="st2" d="M380.5,257.5l-59.8-24.2v188.4h-190.6v-189.6l-59.8,23.7c-29.5-24.6-27.2-68.4-27.2-68.4,0,0,34.8-19.6,65.3-34.8,30.2-15.2,60.7-28.8,61.2-29-1.3,3.1-2,6.3-2,9.6,0,20.2,25.5,36.6,56.9,36.6s56.9-16.3,56.9-36.6-.6-6-1.7-8.8c.5.2,32.7,14.7,62.9,29.9,30.4,15.3,65.3,34.8,65.3,34.8,0,0,2.3,43.8-27.2,68.4h-.1Z"/>
    </g>
    <g>
      <g>
        <path class="st2" d="M188.9,315.5c10,8.6,23,13.9,37.2,13.9,28.7,0,52.4-21.3,56.2-48.9"/>
        <polygon class="st1" points="171.6 335.9 169.9 280.6 218.6 306.7 171.6 335.9"/>
      </g>
      <g>
        <path class="st2" d="M169.9,264.8c3.8-27.6,27.6-48.9,56.2-48.9s27.2,5.2,37.2,13.9"/>
        <polygon class="st1" points="233.5 238.7 282.3 264.8 280.6 209.5 233.5 238.7"/>
      </g>
    </g>
  </g>
</svg>